<?xml version="1.0" standalone="no"?>
<!DOCTYPE svg PUBLIC "-//W3C//DTD SVG 20010904//EN"
 "http://www.w3.org/TR/2001/REC-SVG-20010904/DTD/svg10.dtd">
<svg version="1.0" xmlns="http://www.w3.org/2000/svg"
 width="512.000000pt" height="512.000000pt" viewBox="0 0 512.000000 512.000000"
 preserveAspectRatio="xMidYMid meet">
<metadata>
Created by potrace 1.14, written by Peter Selinger 2001-2017
</metadata>
<g transform="translate(0.000000,512.000000) scale(0.100000,-0.100000)"
fill="#000000" stroke="none">
<path d="M2155 4643 c-490 -60 -915 -264 -1255 -603 -306 -305 -501 -681 -587
-1132 -25 -132 -25 -563 0 -693 9 -49 17 -95 17 -102 0 -6 -30 -28 -67 -49
-103 -56 -253 -146 -253 -151 0 -2 10 -7 23 -12 17 -7 50 6 163 65 77 41 143
74 146 74 3 0 24 -58 47 -129 95 -290 261 -567 486 -810 l69 -73 -114 -107
c-227 -210 -222 -205 -218 -233 3 -25 16 -15 190 138 l187 165 78 -62 c280
-224 595 -366 967 -436 131 -24 466 -29 621 -8 770 103 1417 619 1688 1346
171 456 171 1003 1 1456 l-35 94 178 177 c191 189 305 324 416 492 65 99 187
335 202 390 6 24 6 24 -10 5 -208 -262 -551 -554 -896 -763 l-36 -22 -38 58
c-332 504 -887 846 -1495 921 -78 10 -406 13 -475 4z m245 -158 c0 -8 -7 -15
-15 -15 -8 0 -15 7 -15 15 0 8 7 15 15 15 8 0 15 -7 15 -15z m428 -223 c-10
-7 -18 -21 -18 -30 0 -9 -8 -2 -17 17 -13 26 -14 36 -5 39 7 2 12 10 12 17 0
10 7 7 23 -8 21 -21 21 -23 5 -35z m-548 -8 c0 -19 -28 -30 -42 -16 -8 8 -8
15 1 26 14 17 41 10 41 -10z m240 -29 c0 -21 -30 -31 -40 -14 -11 17 -3 29 21
29 10 0 19 -7 19 -15z m-528 -157 c-15 -15 -26 -4 -18 18 5 13 9 15 18 6 9 -9
9 -15 0 -24z m338 7 c0 -8 -7 -15 -15 -15 -8 0 -15 7 -15 15 0 8 7 15 15 15 8
0 15 -7 15 -15z m-285 -24 c7 -12 -12 -24 -25 -16 -11 7 -4 25 10 25 5 0 11
-4 15 -9z m50 -41 c0 -7 -6 -15 -12 -17 -8 -3 -13 4 -13 17 0 13 5 20 13 18 6
-3 12 -11 12 -18z m420 -29 c7 -12 -12 -24 -25 -16 -11 7 -4 25 10 25 5 0 11
-4 15 -9z m-500 -51 c-5 -8 -11 -8 -17 -2 -6 6 -7 16 -3 22 5 8 11 8 17 2 6
-6 7 -16 3 -22z m-186 -11 c151 -38 389 -173 588 -333 192 -155 474 -454 599
-634 1 -2 31 -8 67 -14 57 -9 70 -9 91 6 14 9 28 16 31 16 3 0 5 -43 5 -95 l0
-96 -43 26 c-24 14 -47 25 -50 25 -4 0 23 -46 59 -101 67 -103 196 -345 230
-431 11 -27 22 -48 26 -48 10 0 34 79 108 355 33 127 63 235 65 241 2 6 40 37
84 68 l80 57 88 -3 87 -3 137 -368 c83 -225 146 -378 160 -393 l22 -24 -221 0
c-122 0 -222 3 -222 6 0 3 11 20 25 36 21 25 25 37 19 62 -17 80 -9 76 -153
76 l-130 0 -11 -55 c-10 -50 -10 -59 9 -90 l20 -35 -69 0 c-39 0 -70 -2 -70
-5 0 -3 14 -52 30 -108 105 -352 71 -602 -95 -690 -34 -18 -57 -22 -145 -22
-108 1 -200 19 -324 66 -96 35 -61 38 42 3 153 -53 318 -61 404 -20 45 22 90
80 120 156 34 85 32 268 -5 410 -14 58 -35 128 -46 155 -16 44 -23 51 -52 55
-34 6 -34 6 -11 20 12 8 22 19 22 24 0 11 -78 181 -99 217 -16 26 -16 25 -16
-37 0 -55 -4 -67 -31 -101 -44 -54 -104 -98 -169 -122 -71 -27 -243 -29 -324
-5 -61 18 -85 12 -123 -28 l-28 -30 0 38 c0 37 4 41 73 86 70 46 74 47 112 37
43 -12 131 -7 183 12 61 21 66 72 10 107 l-31 20 121 81 121 81 37 -43 37 -42
-23 40 c-55 93 -126 204 -168 264 l-44 63 -78 -4 c-86 -3 -120 -22 -120 -64 0
-28 47 -68 97 -84 64 -21 183 -72 183 -78 0 -4 -60 -45 -133 -91 l-132 -84
-55 19 c-87 30 -141 71 -172 133 -63 123 -19 259 103 326 48 26 64 29 140 30
l87 0 -29 40 c-61 84 -247 291 -347 386 -344 328 -679 519 -912 519 -128 0
-208 -47 -261 -156 -29 -58 -33 -77 -37 -170 -5 -117 7 -214 45 -349 43 -155
126 -353 211 -503 33 -58 38 -74 27 -78 -30 -12 -45 7 -103 123 -170 338 -254
667 -225 871 38 260 208 355 502 281z m1004 -113 c8 -20 -20 -43 -35 -28 -14
14 -3 42 16 42 7 0 16 -6 19 -14z m-1221 -158 c-15 -15 -26 -4 -18 18 5 13 9
15 18 6 9 -9 9 -15 0 -24z m230 -12 c17 -12 17 -14 -2 -31 -19 -17 -22 -17
-37 -2 -13 13 -14 19 -3 31 15 19 20 19 42 2z m-151 -71 c-1 -15 -24 -12 -29
3 -3 9 2 13 12 10 10 -1 17 -7 17 -13z m-597 -848 c80 -136 143 -234 148 -229
5 5 8 95 6 200 l-3 190 -33 41 -33 41 117 0 117 0 -21 -22 c-39 -42 -42 -70
-42 -374 0 -311 1 -316 48 -367 l26 -28 -169 3 -169 3 -145 245 -146 244 -3
-189 c-1 -105 0 -200 3 -212 3 -13 19 -38 36 -58 l31 -35 -123 0 -122 0 20 23
c11 12 26 32 32 44 18 35 24 210 16 437 l-7 208 -36 39 -35 39 173 -2 174 -3
140 -238z m1130 73 c34 -91 93 -248 130 -350 37 -102 76 -200 87 -219 16 -27
17 -36 7 -42 -7 -5 -105 -9 -216 -9 l-204 0 26 31 c28 33 32 68 15 118 l-11
31 -94 0 -95 0 43 -57 c23 -32 89 -115 145 -184 l103 -127 -27 -17 c-22 -15
-27 -15 -34 -3 -4 8 -57 75 -116 149 -60 74 -124 155 -142 181 -19 26 -37 45
-41 43 -4 -3 -11 -25 -15 -50 -5 -37 -2 -53 14 -81 l20 -34 -122 0 -122 0 46
43 45 42 77 285 c42 157 77 297 77 311 0 14 -14 45 -30 68 l-30 41 201 -2 201
-3 62 -165z m1376 165 c0 -2 -9 -9 -19 -14 -14 -8 -22 -7 -31 4 -11 13 -8 15
19 15 17 0 31 -2 31 -5z m-942 -637 c-46 -31 -48 -31 -48 12 l0 41 30 -23 c22
-16 27 -24 18 -30z m-1010 -206 c2 -7 -6 -12 -17 -12 -21 0 -27 11 -14 24 9 9
26 2 31 -12z m2102 -122 c0 -11 -4 -20 -9 -20 -14 0 -23 18 -16 30 10 17 25
11 25 -10z m298 -81 c12 0 11 -3 -6 -9 -12 -5 -27 -20 -32 -32 -6 -15 -9 -18
-9 -7 -1 9 -8 22 -16 29 -13 10 -12 15 3 35 16 22 17 22 30 4 7 -11 21 -19 30
-20z m-1769 -37 c31 -27 84 -70 119 -97 61 -47 80 -79 68 -110 -15 -40 -86
-29 -146 22 -24 21 -70 71 -103 112 l-59 75 28 23 c16 13 31 23 33 23 2 0 29
-22 60 -48z m1509 10 c2 -14 -2 -22 -12 -22 -19 0 -29 17 -22 36 8 22 30 12
34 -14z m-300 -9 c5 -17 -26 -29 -40 -15 -6 6 -7 15 -3 22 9 14 37 9 43 -7z
m601 -107 c9 -10 8 -16 -4 -26 -19 -16 -41 1 -32 24 8 20 21 20 36 2z m-769
-11 c0 -8 -7 -15 -15 -15 -8 0 -15 7 -15 15 0 8 7 15 15 15 8 0 15 -7 15 -15z
m168 -32 c5 -17 -26 -29 -40 -15 -6 6 -7 15 -3 22 9 14 37 9 43 -7z m-1830
-10 c5 -17 -26 -29 -40 -15 -6 6 -7 15 -3 22 9 14 37 9 43 -7z m2313 2 c-1
-15 -24 -12 -29 3 -3 9 2 13 12 10 10 -1 17 -7 17 -13z m-2874 -101 c8 -21
-13 -42 -28 -27 -13 13 -5 43 11 43 6 0 13 -7 17 -16z m-236 -39 c-1 -15 -24
-12 -29 3 -3 9 2 13 12 10 10 -1 17 -7 17 -13z m2924 -33 c0 -18 -20 -15 -23
4 -3 10 1 15 10 12 7 -3 13 -10 13 -16z m-465 -21 c0 -14 -18 -23 -30 -16 -6
4 -8 11 -5 16 8 12 35 12 35 0z m-1898 -33 c-15 -15 -26 -4 -18 18 5 13 9 15
18 6 9 -9 9 -15 0 -24z m-357 2 c3 -6 -1 -13 -10 -16 -19 -8 -30 0 -20 15 8
14 22 14 30 1z m2793 -41 c14 0 14 -2 2 -6 -8 -4 -21 -13 -29 -20 -12 -12 -16
-12 -27 -1 -12 11 -12 19 -2 40 12 25 13 25 26 7 7 -10 21 -19 30 -20z m84
-21 c-15 -15 -26 -4 -18 18 5 13 9 15 18 6 9 -9 9 -15 0 -24z m-2785 -4 c8
-21 -13 -42 -28 -27 -13 13 -5 43 11 43 6 0 13 -7 17 -16z m643 -9 c0 -9 -7
-18 -16 -22 -18 -7 -39 11 -30 26 11 17 46 13 46 -4z m900 -10 c0 -8 -7 -15
-15 -15 -8 0 -15 7 -15 15 0 8 7 15 15 15 8 0 15 -7 15 -15z m-1125 -165 c-5
-8 -11 -8 -17 -2 -6 6 -7 16 -3 22 5 8 11 8 17 2 6 -6 7 -16 3 -22z m715 15
c0 -8 -7 -15 -15 -15 -8 0 -15 7 -15 15 0 8 7 15 15 15 8 0 15 -7 15 -15z
m-470 -50 c0 -8 -7 -15 -15 -15 -8 0 -15 7 -15 15 0 8 7 15 15 15 8 0 15 -7
15 -15z m1580 -150 c0 -8 -7 -15 -15 -15 -8 0 -15 7 -15 15 0 8 7 15 15 15 8
0 15 -7 15 -15z m-1732 -46 c12 0 11 -3 -6 -9 -12 -5 -27 -20 -32 -32 -6 -17
-9 -19 -9 -6 -1 10 -9 23 -19 29 -18 11 -18 13 2 33 20 20 22 20 34 4 7 -10
21 -18 30 -19z"/>
<path d="M3686 2719 c-22 -63 -76 -248 -76 -257 0 -8 29 -12 95 -12 56 0 95 4
95 10 0 10 -99 262 -106 269 -2 2 -6 -2 -8 -10z"/>
<path d="M1907 2713 c-8 -13 -77 -240 -77 -252 0 -7 32 -11 95 -11 52 0 95 4
95 8 0 8 -99 254 -105 260 -2 2 -5 0 -8 -5z"/>
</g>
</svg>
